<svg xmlns="http://www.w3.org/2000/svg" width="420" height="420" viewBox="0 0 420 420" fill="none" stroke="#111827" stroke-width="3" stroke-linecap="round" stroke-linejoin="round">
  <g opacity=".92">
    <path d="M38 66 92 38l54 28-54 28-54-28Z"/>
    <path d="M58 78v30c20 16 48 16 68 0V78"/>
    <path d="M146 66v43"/>
    <path d="m146 109-6 11m6-11 6 11"/>

    <path d="M252 34h82v66h-82z"/>
    <path d="M264 46h58v34h-58z"/>
    <circle cx="272" cy="100" r="10"/>
    <circle cx="314" cy="100" r="10"/>

    <path d="M34 206h100l-12 66H46l-12-66Z"/>
    <path d="M50 206v-16c0-13 10-24 24-24h20c13 0 24 11 24 24v16"/>
    <path d="M64 230h40m-46 20h52"/>

    <circle cx="266" cy="220" r="27"/>
    <path d="m247 240-13 39 29-13 15 28 10-47"/>
    <path d="m285 240 13 39-25-12"/>
    <circle cx="266" cy="220" r="15"/>

    <path d="M58 342h92l-10 45H48l10-45Z"/>
    <path d="m58 342 38-25 54 25"/>
    <circle cx="82" cy="348" r="13"/>
    <circle cx="118" cy="348" r="13"/>
    <path d="M95 348h10m-36-21-8-14m70 14 8-14"/>

    <circle cx="316" cy="344" r="14"/>
    <path d="m304 352-31 31m55-31 31 31"/>
    <path d="m273 383-9 18m95-18 9 18"/>
    <path d="m302 337-34-14m62 14 34-14"/>

    <path d="m190 82 7 7m0-7-7 7m-8 221 7 7m0-7-7 7"/>
    <path d="M192 184c-8-10 9-18 13-7 4-11 21-3 13 7l-13 12-13-12Z"/>
    <path d="M367 172c12-12 27 4 14 14-11 9-26-4-19-15"/>
    <path d="M196 378c12-12 27 4 14 14-11 9-26-4-19-15"/>
  </g>
</svg>
